<?xml version="1.0" encoding="UTF-8" standalone="no"?>
<!-- Created with Inkscape (http://www.inkscape.org/) -->

<svg
   xmlns:dc="http://purl.org/dc/elements/1.1/"
   xmlns:cc="http://creativecommons.org/ns#"
   xmlns:rdf="http://www.w3.org/1999/02/22-rdf-syntax-ns#"
   xmlns:svg="http://www.w3.org/2000/svg"
   xmlns="http://www.w3.org/2000/svg"
   xmlns:sodipodi="http://sodipodi.sourceforge.net/DTD/sodipodi-0.dtd"
   xmlns:inkscape="http://www.inkscape.org/namespaces/inkscape"
   width="400"
   height="400"
   viewBox="0 0 400 400.00001"
   id="svg2"
   version="1.1"
   inkscape:version="0.91 r13725"
   sodipodi:docname="whiteLogo.svg">
  <defs
     id="defs4" />
  <sodipodi:namedview
     id="base"
     pagecolor="#ffffff"
     bordercolor="#666666"
     borderopacity="1.0"
     inkscape:pageopacity="0.0"
     inkscape:pageshadow="2"
     inkscape:zoom="0.64"
     inkscape:cx="257.87308"
     inkscape:cy="119.69726"
     inkscape:document-units="px"
     inkscape:current-layer="layer1"
     showgrid="false"
     units="px"
     inkscape:snap-bbox="true"
     inkscape:bbox-paths="true"
     inkscape:bbox-nodes="true"
     inkscape:snap-bbox-edge-midpoints="true"
     inkscape:snap-bbox-midpoints="true"
     inkscape:snap-intersection-paths="true"
     inkscape:object-paths="true"
     inkscape:object-nodes="true"
     inkscape:snap-smooth-nodes="true"
     inkscape:snap-midpoints="true"
     inkscape:snap-object-midpoints="true"
     inkscape:snap-center="true"
     inkscape:snap-text-baseline="true"
     inkscape:snap-page="true"
     inkscape:window-width="1280"
     inkscape:window-height="755"
     inkscape:window-x="0"
     inkscape:window-y="1"
     inkscape:window-maximized="1">
    <inkscape:grid
       type="xygrid"
       id="grid4136" />
  </sodipodi:namedview>
  <metadata
     id="metadata7">
    <rdf:RDF>
      <cc:Work
         rdf:about="">
        <dc:format>image/svg+xml</dc:format>
        <dc:type
           rdf:resource="http://purl.org/dc/dcmitype/StillImage" />
        <dc:title></dc:title>
      </cc:Work>
    </rdf:RDF>
  </metadata>
  <g
     inkscape:label="Layer 1"
     inkscape:groupmode="layer"
     id="layer1"
     transform="translate(0,-652.36216)">
    <rect
       y="557.81836"
       x="-500.7821"
       height="41.935513"
       width="51.612904"
       id="rect4220"
       style="fill:#ffffff;fill-opacity:1;stroke:none;stroke-opacity:1"
       inkscape:transform-center-y="-98.111022"
       transform="matrix(0.70710678,-0.70710678,0.70710678,0.70710678,0,0)"
       inkscape:transform-center-x="98.11106" />
    <rect
       style="fill:#ffffff;fill-opacity:1;stroke:none;stroke-opacity:1"
       id="rect4182"
       width="51.612904"
       height="58.064518"
       x="174.19354"
       y="655.58795" />
    <path
       style="fill:#ffffff;fill-opacity:1;stroke:none;stroke-opacity:1"
       d="M 200 38.708984 A 180.64516 180.64516 0 0 0 19.355469 219.35547 A 180.64516 180.64516 0 0 0 200 400 A 180.64516 180.64516 0 0 0 380.64453 219.35547 A 180.64516 180.64516 0 0 0 200 38.708984 z M 200 90.322266 A 129.03223 129.03223 0 0 1 329.03125 219.35547 A 129.03223 129.03223 0 0 1 200 348.38672 A 129.03223 129.03223 0 0 1 70.96875 219.35547 A 129.03223 129.03223 0 0 1 200 90.322266 z "
       transform="translate(0,652.36216)"
       id="path4140" />
    <rect
       style="fill:#ffffff;fill-opacity:1;stroke:none;stroke-opacity:1"
       id="rect4144"
       width="64.516129"
       height="25.806423"
       x="167.74193"
       y="652.36218" />
    <path
       style="fill:#ffffff;fill-opacity:1;stroke:none;stroke-opacity:1"
       d="m 282.11563,789.60134 -89.07621,71.25954 a 12.903226,12.903226 0 0 0 -2.16338,1.73213 12.903226,12.903226 0 0 0 0,18.24792 12.903226,12.903226 0 0 0 18.24792,0 12.903226,12.903226 0 0 0 1.68936,-2.11347 l 71.30231,-89.12612 z"
       id="path4226"
       inkscape:connector-curvature="0"
       inkscape:transform-center-y="-26.819803"
       inkscape:transform-center-x="-26.819803" />
  </g>
</svg>
